<?xml version="1.0" standalone="no"?>
<!DOCTYPE svg PUBLIC "-//W3C//DTD SVG 20010904//EN"
 "http://www.w3.org/TR/2001/REC-SVG-20010904/DTD/svg10.dtd">
<svg version="1.0" xmlns="http://www.w3.org/2000/svg"
 width="128.000000pt" height="128.000000pt" viewBox="0 0 128.000000 128.000000"
 preserveAspectRatio="xMidYMid meet">

<g transform="translate(0.000000,128.000000) scale(0.100000,-0.100000)"
fill="#000000" stroke="none">
<path d="M501 1265 c-284 -62 -501 -332 -501 -625 0 -349 291 -640 640 -640
349 0 640 291 640 640 0 405 -382 711 -779 625z m345 -814 c172 -276 172 -276
150 -293 -80 -65 -241 -118 -356 -118 -115 0 -278 54 -359 119 l-25 19 40 64
c21 35 106 173 189 306 l150 241 20 -32 c11 -17 97 -155 191 -306z"/>
</g>
</svg>
